<svg width="60" height="54" viewBox="0 0 60 54" fill="none" xmlns="http://www.w3.org/2000/svg">
<g clip-path="url(#clip0_77_287)">
<mask id="mask0_77_287" style="mask-type:luminance" maskUnits="userSpaceOnUse" x="0" y="0" width="60" height="54">
<path d="M0.504028 0.255798H59.312V53.907H0.504028V0.255798Z" fill="white"/>
<path fill-rule="evenodd" clip-rule="evenodd" d="M20.0758 12.2035C19.0729 12.425 18.1556 12.8926 17.4232 13.5557C16.6908 14.2188 16.1712 15.0521 15.9208 15.9653L13.3649 25.2985C12.2519 25.6485 11.2863 26.3066 10.6027 27.181C9.91913 28.0554 9.55162 29.1026 9.55139 30.1766V36.3672C9.55139 37.7353 10.1471 39.0475 11.2076 40.015C12.268 40.9824 13.7063 41.5259 15.206 41.5259H44.61C46.1097 41.5259 47.548 40.9824 48.6084 40.015C49.6689 39.0475 50.2646 37.7353 50.2646 36.3672V30.1766C50.2646 29.1029 49.8974 28.0558 49.2142 27.1815C48.5311 26.3071 47.566 25.6488 46.4534 25.2985L43.8953 15.9653C43.645 15.0523 43.1258 14.2192 42.3938 13.5562C41.6618 12.8931 40.745 12.4253 39.7425 12.2035C36.5235 11.4851 33.222 11.12 29.908 11.116C26.6283 11.116 23.3509 11.4792 20.0758 12.2035ZM15.206 29.1449C15.7105 29.1448 16.2005 28.9907 16.5981 28.7073C16.9956 28.4239 17.2779 28.0274 17.4 27.5807L20.3087 16.9661C20.3588 16.7831 20.4628 16.6162 20.6096 16.4834C20.7563 16.3506 20.9402 16.2571 21.1411 16.2129C24.0107 15.5725 26.9538 15.2469 29.908 15.243C32.8622 15.2467 35.8054 15.5723 38.6749 16.2129C38.8755 16.2574 39.0588 16.3511 39.2051 16.4839C39.3515 16.6166 39.4552 16.7834 39.505 16.9661L42.4138 27.5807C42.5359 28.0274 42.8181 28.4239 43.2157 28.7073C43.6132 28.9907 44.1032 29.1448 44.6078 29.1449C44.9077 29.1449 45.1954 29.2536 45.4075 29.4471C45.6195 29.6406 45.7387 29.903 45.7387 30.1766V36.3672C45.7387 36.6408 45.6195 36.9032 45.4075 37.0967C45.1954 37.2902 44.9077 37.3989 44.6078 37.3989H15.2037C14.9038 37.3989 14.6162 37.2902 14.4041 37.0967C14.192 36.9032 14.0728 36.6408 14.0728 36.3672V30.1766C14.0728 29.903 14.192 29.6406 14.4041 29.4471C14.6162 29.2536 14.9061 29.1449 15.206 29.1449Z" fill="black"/>
<path d="M44.61 33.2719C44.61 34.0928 44.2526 34.8801 43.6163 35.4606C42.98 36.041 42.1171 36.3672 41.2172 36.3672C40.3174 36.3672 39.4545 36.041 38.8182 35.4606C38.1819 34.8801 37.8245 34.0928 37.8245 33.2719C37.8245 32.451 38.1819 31.6637 38.8182 31.0832C39.4545 30.5027 40.3174 30.1766 41.2172 30.1766C42.1171 30.1766 42.98 30.5027 43.6163 31.0832C44.2526 31.6637 44.61 32.451 44.61 33.2719ZM21.9915 33.2719C21.9915 34.0928 21.6341 34.8801 20.9978 35.4606C20.3616 36.041 19.4986 36.3672 18.5988 36.3672C17.699 36.3672 16.836 36.041 16.1997 35.4606C15.5635 34.8801 15.206 34.0928 15.206 33.2719C15.206 32.451 15.5635 31.6637 16.1997 31.0832C16.836 30.5027 17.699 30.1766 18.5988 30.1766C19.4986 30.1766 20.3616 30.5027 20.9978 31.0832C21.6341 31.6637 21.9915 32.451 21.9915 33.2719ZM16.3369 38.4307C17.2367 38.4307 18.0997 38.7568 18.736 39.3372C19.3722 39.9177 19.7297 40.705 19.7297 41.5259V43.5894C19.7297 44.4103 19.3722 45.1976 18.736 45.7781C18.0997 46.3586 17.2367 46.6847 16.3369 46.6847C15.4371 46.6847 14.5741 46.3586 13.9379 45.7781C13.3016 45.1976 12.9442 44.4103 12.9442 43.5894V41.5259C12.9442 40.705 13.3016 39.9177 13.9379 39.3372C14.5741 38.7568 15.4371 38.4307 16.3369 38.4307ZM43.4791 38.4307C44.3789 38.4307 45.2419 38.7568 45.8781 39.3372C46.5144 39.9177 46.8719 40.705 46.8719 41.5259V43.5894C46.8719 44.4103 46.5144 45.1976 45.8781 45.7781C45.2419 46.3586 44.3789 46.6847 43.4791 46.6847C42.5793 46.6847 41.7163 46.3586 41.08 45.7781C40.4438 45.1976 40.0863 44.4103 40.0863 43.5894V41.5259C40.0863 40.705 40.4438 39.9177 41.08 39.3372C41.7163 38.7568 42.5793 38.4307 43.4791 38.4307Z" fill="black"/>
<path fill-rule="evenodd" clip-rule="evenodd" d="M34.8728 16.7638H24.9433C23.9083 16.7636 22.9045 17.0871 22.0993 17.6804C21.2942 18.2737 20.7364 19.101 20.5191 20.0242L19.5487 24.1512C19.407 24.7531 19.4147 25.3763 19.5713 25.9752C19.7278 26.574 20.0292 27.1333 20.4534 27.6121C20.8776 28.0909 21.4138 28.4771 22.0228 28.7423C22.6318 29.0075 23.2981 29.1451 23.9729 29.1449H35.8431C36.5179 29.1451 37.1841 29.0076 37.793 28.7424C38.402 28.4772 38.9381 28.091 39.3621 27.6121C39.7861 27.1332 40.0873 26.5739 40.2435 25.975C40.3998 25.3762 40.4071 24.753 40.265 24.1512L39.2947 20.0242C39.0774 19.1014 38.52 18.2744 37.7153 17.6811C36.9106 17.0878 35.9074 16.764 34.8728 16.7638ZM23.9707 25.0179L24.9433 20.8909H34.8728L35.8431 25.0179H23.9707Z" fill="black"/>
</mask>
<g mask="url(#mask0_77_287)">
<path d="M29.908 53.907C46.1474 53.907 59.312 41.8967 59.312 27.0814C59.312 12.266 46.1474 0.255798 29.908 0.255798C13.6687 0.255798 0.504028 12.266 0.504028 27.0814C0.504028 41.8967 13.6687 53.907 29.908 53.907Z" fill="currentColor"/>
</g>
</g>
<defs>
<clipPath id="clip0_77_287">
<rect width="58.808" height="53.6512" fill="white" transform="translate(0.504028 0.255798)"/>
</clipPath>
</defs>
</svg>
