<svg width="60" height="55" viewBox="0 0 60 55" fill="none" xmlns="http://www.w3.org/2000/svg">
<path d="M0.504028 27.4637C0.504028 12.6481 13.6684 0.638092 29.908 0.638092C46.1476 0.638092 59.312 12.6481 59.312 27.4637C59.312 42.2792 46.1476 54.2892 29.908 54.2892C13.6684 54.2892 0.504028 42.2792 0.504028 27.4637ZM30.6101 29.413C34.2537 30.2312 35.3453 31.3154 35.3453 33.1462C35.3453 35.0486 33.9425 36.4882 30.6101 36.7196V29.413ZM28.4084 25.3076C25.2916 24.5956 24.1216 23.4052 24.1216 21.7867C24.1216 20.1693 25.6028 18.6939 28.4097 18.3743L28.4084 25.3076ZM30.6101 25.7871V18.3743C33.1045 18.6582 34.8577 19.9559 35.1113 22.1969H39.1642C39.0086 18.1619 35.4813 15.495 30.6101 15.1384V12.1351H28.4084V15.1384C23.498 15.4771 19.9915 18.1071 19.9915 22.0896C19.9915 25.6977 22.6612 27.7252 27.6096 28.7737L28.4084 28.9514V36.7017C25.272 36.3999 23.7908 34.8709 23.4404 32.7908H19.4071C19.5419 37.0572 23.46 39.5989 28.4084 39.9376V42.923H30.6101V39.9376C35.5793 39.6168 39.4766 37.1466 39.4766 32.7908C39.4766 29.005 36.671 27.0848 31.5461 26.0006L30.6101 25.7871Z" fill="currentColor"/>
</svg>
