<svg width="56" height="56" viewBox="0 0 56 56" fill="none" xmlns="http://www.w3.org/2000/svg">
<path fill-rule="evenodd" clip-rule="evenodd" d="M55.504 0.511597H0.504028V55.5116H55.504V0.511597ZM15.3999 41.7616C15.3999 40.5218 16.0564 39.4356 17.0418 38.8306C17.0043 38.6879 16.9692 38.5447 16.9364 38.4009C16.7625 37.6181 16.6268 36.8273 16.5297 36.0313C16.4312 35.2686 16.3719 34.5015 16.352 33.7327C11.5155 35.6314 7.37903 38.9406 7.37903 42.4147V48.6366H48.629V42.4147C48.629 39.0872 44.8363 35.9121 40.2667 33.9814V34.0135C40.2874 34.7124 40.2484 35.5145 40.1728 36.2857C40.104 37.0007 40.002 37.7134 39.8794 38.3241H40.6082C40.8209 38.3242 41.0294 38.3835 41.2104 38.4955C41.3913 38.6074 41.5375 38.7674 41.6326 38.9577L42.7784 41.2494C42.8586 41.4087 42.8999 41.584 42.8999 41.7616V44.0533C42.8999 44.3572 42.7791 44.6486 42.5643 44.8635C42.3494 45.0784 42.0579 45.1991 41.754 45.1991H39.4624V42.9074H40.6082V42.032L39.9001 40.6158H36.733L36.0249 42.032V42.9074H37.1707V45.1991H34.879C34.5751 45.1991 34.2837 45.0784 34.0688 44.8635C33.8539 44.6486 33.7332 44.3572 33.7332 44.0533V41.7616C33.7332 41.584 33.7744 41.4087 33.8547 41.2494L35.0005 38.9577C35.0956 38.7674 35.2418 38.6074 35.4227 38.4955C35.6036 38.3835 35.8121 38.3242 36.0249 38.3241H37.5316C37.5568 38.2256 37.582 38.1167 37.6073 37.9964C37.7218 37.4567 37.8238 36.7726 37.8926 36.0657C37.9613 35.3575 37.9934 34.6551 37.9762 34.0776C37.9719 33.8384 37.9532 33.5996 37.9201 33.3626C37.8949 33.1999 37.8697 33.1255 37.8651 33.1094C37.8628 33.1048 37.8628 33.1048 37.8651 33.1071L37.8685 33.106C37.2605 32.9171 36.6455 32.7516 36.0249 32.6098C35.4485 32.4781 34.8527 33.271 34.5926 33.7671H21.129C21.0956 33.7033 21.0627 33.6391 21.0305 33.5746C20.7876 33.0911 20.4885 32.4941 19.9832 32.6098C19.5421 32.7095 19.1009 32.8241 18.6598 32.9501C18.6455 33.1511 18.6394 33.3525 18.6414 33.554C18.646 34.1876 18.7067 34.9634 18.8041 35.7471C18.9015 36.5286 19.0333 37.2894 19.1708 37.8898C19.2098 38.0628 19.2487 38.2187 19.2854 38.3527C19.9405 38.4389 20.5569 38.7119 21.0608 39.1393C21.5647 39.5667 21.9347 40.1302 22.1266 40.7624C22.3186 41.3947 22.3242 42.0688 22.1429 42.7042C21.9616 43.3395 21.601 43.9092 21.1044 44.3449C20.6077 44.7807 19.996 45.064 19.3424 45.1611C18.6889 45.2582 18.0212 45.1649 17.4193 44.8923C16.8174 44.6197 16.3068 44.1795 15.9487 43.6242C15.5905 43.069 15.4 42.4223 15.3999 41.7616ZM19.9832 41.7616C19.9832 42.4193 19.4538 42.9246 18.8374 42.9246C18.2209 42.9246 17.6915 42.4205 17.6915 41.7616C17.6915 41.1039 18.2209 40.5986 18.8374 40.5986C19.4538 40.5986 19.9832 41.1027 19.9832 41.7616ZM21.1336 22.2641C21.199 24.0625 21.9669 25.7635 23.2724 27.002C24.578 28.2406 26.3171 28.9178 28.1164 28.8884C29.9157 28.859 31.6318 28.1253 32.8962 26.8448C34.1605 25.5643 34.8724 23.8391 34.879 22.0395C34.3932 20.3506 34.9111 18.8358 34.9111 18.8358C34.9111 18.8358 29.1361 18.2583 22.2749 13.6887C21.2952 14.7188 21.2975 17.2419 21.2986 19.3812C21.2986 20.566 21.2998 21.6339 21.1336 22.2641ZM36.7708 24.6887C38.2867 25.4736 39.2722 20.3013 39.2722 16.3356C39.2722 8.60576 29.4867 6.85951 26.1042 6.40806C21.7168 5.82368 21.0213 8.88649 20.7074 10.2649C20.6249 10.6293 20.5687 10.8768 20.4782 10.9066C15.4056 15.0178 17.3787 20.2921 18.8832 22.9252C19.0945 25.0325 20.029 27.0015 21.5278 28.4978C23.0266 29.994 24.9972 30.9251 27.1048 31.1329C29.2124 31.3407 31.3269 30.8123 33.089 29.6375C34.8511 28.4627 36.152 26.7141 36.7708 24.6887Z" fill="currentColor"/>
</svg>
