<svg width="46" height="47" viewBox="0 0 46 47" fill="none" xmlns="http://www.w3.org/2000/svg">
<path d="M20.6473 0.932159V14.6822C20.6473 15.8977 21.1766 17.0635 22.1187 17.9231C23.0609 18.7826 24.3387 19.2655 25.6711 19.2655H38.0299C36.5328 19.7697 35.1562 20.5351 34.1163 21.4884L18.9191 35.4492C18.0339 36.26 17.4025 37.272 17.0904 38.3803L15.7716 43.0324C15.5887 43.6594 15.548 44.314 15.6521 44.9559C15.7562 45.5978 16.0029 46.2136 16.377 46.7655H4.31967C3.32035 46.7655 2.36197 46.4033 1.65535 45.7587C0.948732 45.114 0.551758 44.2397 0.551758 43.328V4.36966C0.551758 3.45798 0.948732 2.58364 1.65535 1.93898C2.36197 1.29432 3.32035 0.932159 4.31967 0.932159H20.6473ZM24.4152 2.07799V14.6822C24.4152 14.9861 24.5475 15.2775 24.783 15.4924C25.0186 15.7073 25.338 15.828 25.6711 15.828H39.4868L24.4152 2.07799ZM21.1396 36.618L35.9651 23.0926C37.0417 22.1101 38.502 21.558 40.0247 21.5578C41.5475 21.5576 43.008 22.1092 44.0849 23.0914C45.1618 24.0736 45.767 25.4059 45.7672 26.7951C45.7674 28.1843 45.1628 29.5168 44.0862 30.4992L29.2582 44.0247C28.3932 44.8123 27.3109 45.3721 26.1258 45.6449L21.5264 46.6922C21.0691 46.7964 20.5899 46.7908 20.1357 46.6759C19.6814 46.5611 19.2674 46.3409 18.9341 46.0368C18.6007 45.7327 18.3594 45.355 18.2335 44.9406C18.1076 44.5261 18.1015 44.089 18.2157 43.6717L19.3637 39.478C19.6601 38.394 20.273 37.4063 21.1396 36.618Z" fill="currentColor"/>
</svg>
