<svg width="24" height="24" viewBox="0 0 24 24" fill="none" xmlns="http://www.w3.org/2000/svg">
<path d="M20.25 21.0001C20.1515 21.0003 20.0539 20.9809 19.9629 20.9432C19.8719 20.9054 19.7893 20.8501 19.7198 20.7803L3.21983 4.28025C3.08512 4.13845 3.01112 3.94964 3.01363 3.75407C3.01613 3.5585 3.09494 3.37164 3.23324 3.23334C3.37154 3.09504 3.55839 3.01624 3.75396 3.01373C3.94954 3.01123 4.13835 3.08522 4.28014 3.21994L20.7801 19.7199C20.885 19.8248 20.9563 19.9584 20.9852 20.1039C21.0142 20.2493 20.9993 20.4001 20.9426 20.5371C20.8858 20.6741 20.7898 20.7912 20.6665 20.8736C20.5432 20.956 20.3983 21 20.25 21.0001ZM11.9841 18.0001C10.0392 18.0001 8.16374 17.4245 6.40968 16.2892C4.81265 15.2579 3.37499 13.7809 2.25186 12.0235V12.0198C3.18655 10.6806 4.2103 9.54806 5.30999 8.63494C5.31994 8.62662 5.32805 8.61633 5.33382 8.60472C5.33959 8.59311 5.34289 8.58042 5.3435 8.56747C5.34412 8.55452 5.34204 8.54158 5.3374 8.52947C5.33276 8.51736 5.32566 8.50635 5.31655 8.49713L4.3828 7.56478C4.36621 7.54805 4.34392 7.53818 4.32039 7.53714C4.29685 7.5361 4.27378 7.54396 4.25577 7.55916C3.08765 8.54353 2.00343 9.75103 1.01765 11.1648C0.848044 11.4082 0.754638 11.6966 0.749297 11.9932C0.743955 12.2898 0.826918 12.5813 0.987645 12.8307C2.22561 14.7681 3.81889 16.3998 5.59452 17.5487C7.59374 18.8438 9.7453 19.5001 11.9841 19.5001C13.1925 19.4963 14.3923 19.2972 15.5372 18.9104C15.5523 18.9053 15.5658 18.8964 15.5765 18.8846C15.5872 18.8728 15.5948 18.8584 15.5984 18.8429C15.602 18.8273 15.6016 18.8111 15.5972 18.7958C15.5928 18.7805 15.5846 18.7665 15.5733 18.7553L14.5617 17.7437C14.5384 17.721 14.5096 17.7047 14.4781 17.6965C14.4467 17.6883 14.4136 17.6884 14.3822 17.6968C13.5988 17.8985 12.793 18.0004 11.9841 18.0001ZM23.0081 11.1845C21.7678 9.26634 20.1586 7.63697 18.3548 6.47213C16.3594 5.18213 14.1562 4.50009 11.9841 4.50009C10.7884 4.50222 9.60172 4.70552 8.47358 5.1015C8.45855 5.10673 8.4451 5.1157 8.43449 5.12757C8.42389 5.13943 8.41648 5.1538 8.41296 5.16933C8.40944 5.18485 8.40994 5.20101 8.41439 5.21629C8.41885 5.23157 8.42712 5.24546 8.43843 5.25666L9.44858 6.26681C9.4721 6.28993 9.5013 6.30644 9.53323 6.31467C9.56516 6.3229 9.5987 6.32256 9.63046 6.31369C10.3978 6.10612 11.1891 6.00067 11.9841 6.00009C13.8914 6.00009 15.7612 6.58275 17.5411 7.73447C19.1681 8.78447 20.6226 10.2601 21.7486 12.0001C21.7494 12.0012 21.7499 12.0025 21.7499 12.0038C21.7499 12.0052 21.7494 12.0065 21.7486 12.0076C20.9313 13.2943 19.9171 14.4447 18.743 15.4168C18.7329 15.4251 18.7247 15.4354 18.7188 15.447C18.713 15.4587 18.7096 15.4714 18.7089 15.4844C18.7083 15.4974 18.7103 15.5104 18.715 15.5226C18.7196 15.5348 18.7268 15.5458 18.7359 15.5551L19.6687 16.4874C19.6852 16.5041 19.7074 16.514 19.7308 16.5151C19.7543 16.5162 19.7773 16.5085 19.7953 16.4935C21.0487 15.4381 22.1337 14.1976 23.0128 12.8148C23.1682 12.5711 23.2503 12.2879 23.2495 11.9989C23.2487 11.7099 23.1649 11.4273 23.0081 11.1845Z" fill="currentColor"/>
<path d="M12 7.5C11.6629 7.49982 11.3269 7.53756 10.9983 7.6125C10.9817 7.61595 10.9663 7.62383 10.9539 7.63531C10.9414 7.64679 10.9323 7.66144 10.9274 7.6777C10.9226 7.69395 10.9223 7.71121 10.9265 7.72763C10.9308 7.74405 10.9394 7.75901 10.9514 7.77094L16.2291 13.0472C16.241 13.0592 16.256 13.0678 16.2724 13.0721C16.2888 13.0763 16.3061 13.076 16.3223 13.0712C16.3386 13.0663 16.3532 13.0572 16.3647 13.0447C16.3762 13.0323 16.3841 13.0169 16.3875 13.0003C16.5378 12.3413 16.5376 11.6568 16.3871 10.9979C16.2366 10.3389 15.9395 9.72228 15.518 9.19385C15.0965 8.66542 14.5613 8.23874 13.9523 7.9455C13.3432 7.65226 12.676 7.49999 12 7.5ZM7.77094 10.9528C7.75902 10.9408 7.74405 10.9322 7.72763 10.9279C7.71121 10.9237 7.69395 10.924 7.6777 10.9289C7.66144 10.9337 7.64679 10.9428 7.63531 10.9553C7.62383 10.9677 7.61595 10.9831 7.6125 10.9997C7.44251 11.7424 7.46385 12.516 7.67454 13.2482C7.88522 13.9803 8.27835 14.647 8.81707 15.1857C9.3558 15.7245 10.0225 16.1176 10.7546 16.3283C11.4868 16.539 12.2605 16.5603 13.0031 16.3903C13.0197 16.3869 13.0351 16.379 13.0476 16.3675C13.06 16.356 13.0692 16.3414 13.074 16.3251C13.0788 16.3089 13.0791 16.2916 13.0749 16.2752C13.0706 16.2588 13.0621 16.2438 13.05 16.2319L7.77094 10.9528Z" fill="currentColor"/>
</svg>
