<svg width="60" height="55" viewBox="0 0 60 55" fill="none" xmlns="http://www.w3.org/2000/svg">
<path d="M24.0272 48.1271V39.1106C24.0272 35.6554 26.9529 32.9381 31.2812 31.3869C28.4899 30.436 25.5352 29.9507 22.557 29.9542C16.9997 29.9542 11.8657 31.6158 7.71683 34.4247C9.00328 37.7569 11.1632 40.7489 14.0071 43.1381C16.8509 45.5272 20.2917 47.2403 24.0272 48.1271ZM50.138 38.265C48.9765 36.8296 45.1099 35.3403 40.1994 35.3403C34.301 35.3403 29.908 37.4867 29.908 39.1106V48.8057C33.9889 48.8078 38 47.837 41.547 45.9889C45.094 44.1407 48.0547 41.4789 50.138 38.265ZM22.7041 25.9146C24.4587 25.9146 26.1415 25.2762 27.3822 24.1398C28.6229 23.0034 29.32 21.4622 29.32 19.8551C29.32 18.2481 28.6229 16.7068 27.3822 15.5705C26.1415 14.4341 24.4587 13.7957 22.7041 13.7957C20.9494 13.7957 19.2666 14.4341 18.0259 15.5705C16.7852 16.7068 16.0882 18.2481 16.0882 19.8551C16.0882 21.4622 16.7852 23.0034 18.0259 24.1398C19.2666 25.2762 20.9494 25.9146 22.7041 25.9146ZM40.1994 28.6076C41.7591 28.6076 43.2549 28.0402 44.3578 27.0301C45.4607 26.02 46.0802 24.65 46.0802 23.2215C46.0802 21.793 45.4607 20.423 44.3578 19.4129C43.2549 18.4028 41.7591 17.8353 40.1994 17.8353C38.6398 17.8353 37.144 18.4028 36.0411 19.4129C34.9382 20.423 34.3186 21.793 34.3186 23.2215C34.3186 24.65 34.9382 26.02 36.0411 27.0301C37.144 28.0402 38.6398 28.6076 40.1994 28.6076ZM29.908 54.1919C13.6682 54.1919 0.504028 42.135 0.504028 27.2611C0.504028 12.3872 13.6682 0.330322 29.908 0.330322C46.1479 0.330322 59.3121 12.3872 59.3121 27.2611C59.3121 42.135 46.1479 54.1919 29.908 54.1919Z" fill="currentColor"/>
</svg>
