<svg width="75" height="84" viewBox="0 0 75 84" fill="none" xmlns="http://www.w3.org/2000/svg">
<g clip-path="url(#clip0_2502_5888)">
<path d="M37.5 54.6852C34.392 54.6852 31.4113 53.3134 29.2136 50.8716C27.0159 48.4298 25.7813 45.118 25.7812 41.6648C25.7813 38.2116 27.0159 34.8999 29.2136 32.4581C31.4113 30.0163 34.392 28.6445 37.5 28.6445C40.608 28.6445 43.5887 30.0163 45.7864 32.4581C47.9841 34.8999 49.2188 38.2116 49.2188 41.6648C49.2188 45.118 47.9841 48.4298 45.7864 50.8716C43.5887 53.3134 40.608 54.6852 37.5 54.6852ZM37.5 33.8527C35.6352 33.8527 33.8468 34.6757 32.5282 36.1408C31.2095 37.6059 30.4688 39.5929 30.4688 41.6648C30.4688 43.7368 31.2095 45.7238 32.5282 47.1889C33.8468 48.654 35.6352 49.477 37.5 49.477C39.3648 49.477 41.1532 48.654 42.4718 47.1889C43.7905 45.7238 44.5312 43.7368 44.5312 41.6648C44.5312 39.5929 43.7905 37.6059 42.4718 36.1408C41.1532 34.6757 39.3648 33.8527 37.5 33.8527Z" fill="white"/>
<path d="M46.875 83.33H28.125V72.7575C28.0763 72.2983 27.9184 71.8618 27.6676 71.4929C27.4168 71.1239 27.0821 70.8358 26.6979 70.6581C26.3136 70.4805 25.8938 70.4197 25.4814 70.482C25.0691 70.5444 24.6791 70.7276 24.3516 71.0128L17.6016 78.4864L4.35938 63.7735L11.0859 56.2998C11.3865 55.9655 11.5914 55.5399 11.6748 55.0766C11.7582 54.6132 11.7164 54.1328 11.5547 53.6958C11.3991 53.2403 11.1236 52.8476 10.764 52.5688C10.4044 52.2901 9.97749 52.1383 9.53906 52.1333H0V31.2488H9.51562C9.94534 31.2462 10.3646 31.1011 10.7195 30.832C11.0745 30.5629 11.349 30.1821 11.5078 29.7384C11.6664 29.3027 11.7088 28.8254 11.6298 28.3636C11.5509 27.9018 11.3539 27.4751 11.0625 27.1343L4.35938 19.5565L17.6016 4.84356L24.3281 12.3172C24.6556 12.6093 25.0477 12.7983 25.4634 12.8644C25.8791 12.9305 26.3031 12.8713 26.6912 12.693C27.0792 12.5147 27.417 12.2238 27.6693 11.8508C27.9215 11.4777 28.0789 11.0362 28.125 10.5725V0H46.875V10.5725C46.9237 11.0317 47.0816 11.4682 47.3324 11.8371C47.5832 12.2061 47.9179 12.4942 48.3022 12.6719C48.6864 12.8495 49.1062 12.9103 49.5186 12.848C49.9309 12.7856 50.3209 12.6024 50.6484 12.3172L57.375 4.84356L70.6406 19.5826L63.9141 27.0562C63.6135 27.3905 63.4086 27.8161 63.3252 28.2795C63.2418 28.7428 63.2836 29.2232 63.4453 29.6603C63.6009 30.1157 63.8764 30.5085 64.236 30.7872C64.5956 31.066 65.0225 31.2177 65.4609 31.2227H75V52.0552H65.4844C65.0547 52.0577 64.6354 52.2029 64.2805 52.472C63.9255 52.7411 63.651 53.1219 63.4922 53.5656C63.3335 54.0013 63.2912 54.4786 63.3702 54.9404C63.4491 55.4021 63.6461 55.8289 63.9375 56.1696L70.6641 63.6433L57.3984 78.3823L50.6719 70.9086C50.3443 70.6234 49.9544 70.4402 49.542 70.3779C49.1296 70.3156 48.7098 70.3763 48.3256 70.554C47.9414 70.7316 47.6067 71.0197 47.3559 71.3887C47.105 71.7577 46.9472 72.1942 46.8984 72.6533L46.875 83.33ZM32.8125 78.1219H42.1875V72.7575C42.255 71.284 42.6968 69.8618 43.4616 68.6557C44.2263 67.4495 45.2829 66.5086 46.509 65.9419C47.7351 65.3752 49.0806 65.2059 50.3897 65.4535C51.6988 65.7011 52.918 66.3555 53.9062 67.3411L57.3281 71.143L63.9609 63.7735L60.6094 59.8934C59.7224 58.7954 59.1333 57.4408 58.9105 55.9863C58.6876 54.5318 58.84 53.0369 59.3501 51.6746C59.8601 50.3124 60.707 49.1384 61.7926 48.2887C62.8782 47.439 64.1581 46.9482 65.4844 46.8731H70.3125V36.4569H65.4844C64.1581 36.3818 62.8782 35.891 61.7926 35.0413C60.707 34.1916 59.8601 33.0177 59.3501 31.6554C58.84 30.2931 58.6876 28.7982 58.9105 27.3437C59.1333 25.8892 59.7224 24.5346 60.6094 23.4366L64.0312 19.6346L57.3984 12.2131L53.9062 15.9889C52.918 16.9745 51.6988 17.6289 50.3897 17.8765C49.0806 18.1241 47.7351 17.9548 46.509 17.3881C45.2829 16.8214 44.2263 15.8805 43.4616 14.6743C42.6968 13.4682 42.255 12.046 42.1875 10.5725V5.20813H32.8125V10.5725C32.745 12.046 32.3032 13.4682 31.5384 14.6743C30.7737 15.8805 29.7171 16.8214 28.491 17.3881C27.2649 17.9548 25.9195 18.1241 24.6103 17.8765C23.3012 17.6289 22.082 16.9745 21.0938 15.9889L17.6016 12.2131L10.9922 19.5565L14.3906 23.4366C15.2776 24.5346 15.8667 25.8892 16.0895 27.3437C16.3124 28.7982 16.16 30.2931 15.6499 31.6554C15.1399 33.0177 14.293 34.1916 13.2074 35.0413C12.1218 35.891 10.8418 36.3818 9.51562 36.4569H4.6875V46.8731H9.51562C10.8418 46.9482 12.1218 47.439 13.2074 48.2887C14.293 49.1384 15.1399 50.3124 15.6499 51.6746C16.16 53.0369 16.3124 54.5318 16.0895 55.9863C15.8667 57.4408 15.2776 58.7954 14.3906 59.8934L10.9922 63.7735L17.625 71.143L21.0938 67.3411C22.082 66.3555 23.3012 65.7011 24.6103 65.4535C25.9195 65.2059 27.2649 65.3752 28.491 65.9419C29.7171 66.5086 30.7737 67.4495 31.5384 68.6557C32.3032 69.8618 32.745 71.284 32.8125 72.7575V78.1219Z" fill="currentColor"/>
</g>
<defs>
<clipPath id="clip0_2502_5888">
<rect width="75" height="83.33" fill="currentColor"/>
</clipPath>
</defs>
</svg>
