<svg width="22" height="24" viewBox="0 0 22 24" fill="none" xmlns="http://www.w3.org/2000/svg">
<path d="M8.0003 16.9997C6.89573 16.9997 6.0003 17.8951 6.0003 18.9997C6.0003 20.1043 6.89573 20.9997 8.0003 20.9997C9.10487 20.9997 10.0003 20.1043 10.0003 18.9997C10.0003 17.8951 9.10487 16.9997 8.0003 16.9997Z" fill="#2FF20F"/>
<path fill-rule="evenodd" clip-rule="evenodd" d="M7 2H5V0H17V2H15V7.72965L22 19.7297V24H0V19.7297L7 7.72965V2ZM9 2V8.27035L6.02493 13.3705C7.05805 13.7997 7.72698 13.8154 8.20901 13.7102C8.81866 13.5772 9.29766 13.2288 10.0167 12.7058L10.0371 12.691C10.7266 12.1896 11.6042 11.5631 12.8288 11.3299C13.4183 11.2176 14.0576 11.2007 14.7675 11.3004L13 8.27035V2H9ZM16.1976 13.752C14.7991 13.2107 13.8709 13.1673 13.203 13.2945C12.4589 13.4363 11.899 13.8098 11.2135 14.3084L11.0865 14.4011C10.4607 14.8588 9.66757 15.439 8.63534 15.6642C7.5928 15.8917 6.42901 15.7441 5.0099 15.1105L2 20.2703V22H20V20.2703L16.1976 13.752Z" fill="#1F4B73"/>
<path d="M14.0003 14.9997C12.8957 14.9997 12.0003 15.8951 12.0003 16.9997C12.0003 18.1043 12.8957 18.9997 14.0003 18.9997C15.1049 18.9997 16.0003 18.1043 16.0003 16.9997C16.0003 15.8951 15.1049 14.9997 14.0003 14.9997Z" fill="#FD14D2"/>
<path fill-rule="evenodd" clip-rule="evenodd" d="M13.203 13.2945C13.8709 13.1673 14.7991 13.2107 16.1976 13.752L20 20.2703V22H2V20.2703L5.0099 15.1105C6.42901 15.7441 7.5928 15.8917 8.63534 15.6642C9.66757 15.439 10.4607 14.8588 11.0865 14.4011L11.2135 14.3084C11.899 13.8098 12.4589 13.4363 13.203 13.2945ZM12.0003 16.9997C12.0003 15.8951 12.8957 14.9997 14.0003 14.9997C15.1049 14.9997 16.0003 15.8951 16.0003 16.9997C16.0003 18.1043 15.1049 18.9997 14.0003 18.9997C12.8957 18.9997 12.0003 18.1043 12.0003 16.9997ZM6.0003 18.9997C6.0003 17.8951 6.89573 16.9997 8.0003 16.9997C9.10487 16.9997 10.0003 17.8951 10.0003 18.9997C10.0003 20.1043 9.10487 20.9997 8.0003 20.9997C6.89573 20.9997 6.0003 20.1043 6.0003 18.9997Z" fill="#FFDD00"/>
</svg>
