<svg width="29" height="32" viewBox="0 0 29 32" fill="none" xmlns="http://www.w3.org/2000/svg">
<path d="M27.9706 1L26.5 2.57895" stroke="currentColor" stroke-width="2" stroke-linecap="round" stroke-linejoin="round"/>
<path d="M1.5 1L2.97059 2.57895" stroke="currentColor" stroke-width="2" stroke-linecap="round" stroke-linejoin="round"/>
<path d="M27.9706 23.1048L26.5 21.5259" stroke="currentColor" stroke-width="2" stroke-linecap="round" stroke-linejoin="round"/>
<path d="M1.5 23.1048L2.97059 21.5259" stroke="currentColor" stroke-width="2" stroke-linecap="round" stroke-linejoin="round"/>
<path d="M10.3235 26.2627H19.147" stroke="currentColor" stroke-width="2" stroke-linecap="round" stroke-linejoin="round"/>
<path d="M11.7942 31H17.6765" stroke="currentColor" stroke-width="2" stroke-linecap="round" stroke-linejoin="round"/>
<path d="M14.7349 2.57861C8.85245 2.57861 5.84092 5.65802 5.91149 10.4734C5.94589 12.8211 6.64656 14.4207 8.11737 15.9997C9.58818 17.5786 10.3235 18.3681 10.3233 21.526H19.1467C19.147 18.3682 19.8823 17.5786 21.3524 15.9998C22.8229 14.4209 23.5242 12.8211 23.5585 10.4734C23.6291 5.65802 20.6176 2.57861 14.7349 2.57861Z" stroke="currentColor" stroke-width="2" stroke-linecap="round" stroke-linejoin="round"/>
</svg>
