<svg width="56" height="56" viewBox="0 0 56 56" fill="none" xmlns="http://www.w3.org/2000/svg">
<path fill-rule="evenodd" clip-rule="evenodd" d="M4.08514 4.18827C0.504028 7.40852 0.504028 12.595 0.504028 22.9653V33.9653C0.504028 44.3355 0.504028 49.522 4.08514 52.7423C7.66319 55.9653 13.426 55.9653 24.9485 55.9653H31.0596C42.5821 55.9653 48.3449 55.9653 51.9229 52.7423C55.504 49.522 55.504 44.3355 55.504 33.9653V22.9653C55.504 12.595 55.504 7.40852 51.9229 4.18827C48.3449 0.965271 42.5821 0.965271 31.0596 0.965271H24.9485C13.426 0.965271 7.66319 0.965271 4.08514 4.18827ZM13.4901 17.4653C13.4901 16.9183 13.7316 16.3937 14.1614 16.0069C14.5911 15.6201 15.174 15.4028 15.7818 15.4028H40.2263C40.834 15.4028 41.4169 15.6201 41.8467 16.0069C42.2765 16.3937 42.5179 16.9183 42.5179 17.4653C42.5179 18.0123 42.2765 18.5369 41.8467 18.9237C41.4169 19.3105 40.834 19.5278 40.2263 19.5278H15.7818C15.174 19.5278 14.5911 19.3105 14.1614 18.9237C13.7316 18.5369 13.4901 18.0123 13.4901 17.4653ZM13.4901 28.4653C13.4901 27.9183 13.7316 27.3937 14.1614 27.0069C14.5911 26.6201 15.174 26.4028 15.7818 26.4028H40.2263C40.834 26.4028 41.4169 26.6201 41.8467 27.0069C42.2765 27.3937 42.5179 27.9183 42.5179 28.4653C42.5179 29.0123 42.2765 29.5369 41.8467 29.9237C41.4169 30.3105 40.834 30.5278 40.2263 30.5278H15.7818C15.174 30.5278 14.5911 30.3105 14.1614 29.9237C13.7316 29.5369 13.4901 29.0123 13.4901 28.4653ZM15.7818 37.4028C15.174 37.4028 14.5911 37.6201 14.1614 38.0069C13.7316 38.3937 13.4901 38.9183 13.4901 39.4653C13.4901 40.0123 13.7316 40.5369 14.1614 40.9237C14.5911 41.3105 15.174 41.5278 15.7818 41.5278H31.0596C31.6674 41.5278 32.2503 41.3105 32.68 40.9237C33.1098 40.5369 33.3513 40.0123 33.3513 39.4653C33.3513 38.9183 33.1098 38.3937 32.68 38.0069C32.2503 37.6201 31.6674 37.4028 31.0596 37.4028H15.7818Z" fill="currentColor"/>
</svg>
