<svg width="60" height="54" viewBox="0 0 60 54" fill="none" xmlns="http://www.w3.org/2000/svg">
<g clip-path="url(#clip0_77_297)">
<mask id="mask0_77_297" style="mask-type:luminance" maskUnits="userSpaceOnUse" x="0" y="0" width="60" height="54">
<path d="M0.504028 0.0929871H59.312V53.7441H0.504028V0.0929871Z" fill="white"/>
<path fill-rule="evenodd" clip-rule="evenodd" d="M9.55139 22.383C9.55139 20.7411 10.2663 19.1666 11.5388 18.0056C12.8114 16.8447 14.5373 16.1925 16.3369 16.1925H43.4791C45.2787 16.1925 47.0047 16.8447 48.2772 18.0056C49.5497 19.1666 50.2646 20.7411 50.2646 22.383V32.7005C50.2646 34.3423 49.5497 35.9169 48.2772 37.0779C47.0047 38.2388 45.2787 38.891 43.4791 38.891H16.3369C14.5373 38.891 12.8114 38.2388 11.5388 37.0779C10.2663 35.9169 9.55139 34.3423 9.55139 32.7005V22.383ZM16.3369 20.3195C15.7371 20.3195 15.1617 20.5369 14.7376 20.9239C14.3134 21.3108 14.0751 21.8357 14.0751 22.383V32.7005C14.0751 33.2478 14.3134 33.7726 14.7376 34.1596C15.1617 34.5466 15.7371 34.764 16.3369 34.764H43.4791C44.079 34.764 44.6543 34.5466 45.0785 34.1596C45.5027 33.7726 45.741 33.2478 45.741 32.7005V22.383C45.741 21.8357 45.5027 21.3108 45.0785 20.9239C44.6543 20.5369 44.079 20.3195 43.4791 20.3195H16.3369Z" fill="black"/>
<path fill-rule="evenodd" clip-rule="evenodd" d="M29.9012 31.6688C30.5037 31.681 31.1027 31.5834 31.6632 31.3816C32.2237 31.1798 32.7343 30.8778 33.1652 30.4935C33.596 30.1091 33.9383 29.6501 34.172 29.1434C34.4057 28.6367 34.5261 28.0925 34.5261 27.5428C34.5261 26.993 34.4057 26.4488 34.172 25.9421C33.9383 25.4354 33.596 24.9764 33.1652 24.5921C32.7343 24.2077 32.2237 23.9058 31.6632 23.704C31.1027 23.5021 30.5037 23.4045 29.9012 23.4168C28.7015 23.4168 27.5509 23.8516 26.7025 24.6256C25.8542 25.3995 25.3776 26.4493 25.3776 27.5438C25.3776 28.6384 25.8542 29.6881 26.7025 30.462C27.5509 31.236 28.7015 31.6708 29.9012 31.6708M49.8123 30.3254C49.6792 30.5679 49.495 30.7841 49.2703 30.9617C49.0456 31.1392 48.7847 31.2746 48.5026 31.36C48.2205 31.4455 47.9226 31.4794 47.6261 31.4598C47.3296 31.4402 47.0403 31.3674 46.7746 31.2457L46.7701 31.2437L46.7565 31.2375L46.7113 31.2168C46.4632 31.1013 46.2166 30.983 45.9717 30.8619C45.4899 30.6246 44.8204 30.2841 44.0762 29.8776C42.6354 29.0873 40.7378 27.9483 39.4055 26.7328C38.071 25.5154 36.9921 23.9946 36.2706 22.8473C35.8515 22.1795 35.4637 21.4959 35.108 20.7982L35.0899 20.7611L35.0854 20.7487L35.0809 20.7425L37.1256 19.9171L35.0831 20.7425C34.857 20.2449 34.8531 19.6863 35.0723 19.1861C35.2915 18.686 35.7164 18.2838 36.2562 18.0656C36.796 17.8473 37.408 17.8304 37.9614 18.0182C38.5148 18.2061 38.9657 18.5839 39.2178 19.071V19.0772L39.2291 19.0958L39.2743 19.1845C39.5581 19.7318 39.8652 20.2687 40.1949 20.7941C40.8373 21.8176 41.6855 22.9773 42.6038 23.8171C43.5221 24.6549 45.0172 25.5793 46.4037 26.3408C47.1332 26.739 47.8754 27.1175 48.6293 27.4757L48.7651 27.5397L48.7945 27.5541L48.8012 27.5582M49.81 30.3275C50.0788 29.8382 50.1234 29.2716 49.9343 28.7523C49.7451 28.2329 49.3375 27.8034 48.8012 27.5582L49.81 30.3275ZM9.9902 24.7581C10.259 24.2688 10.7297 23.897 11.299 23.7244C11.8682 23.5518 12.4893 23.5926 13.0256 23.8377L13.0324 23.8419L13.046 23.8481L13.0912 23.8687C13.339 23.9835 13.5848 24.1018 13.8286 24.2236C14.3126 24.4609 14.9821 24.8014 15.724 25.2079C17.167 25.9962 19.0625 27.1352 20.397 28.3506C21.7292 29.5681 22.8081 31.091 23.5296 32.2362C23.9488 32.9046 24.3367 33.5889 24.6922 34.2873L24.7103 34.3245L24.7171 34.3369L24.7194 34.3431C24.8397 34.5909 24.9053 34.8579 24.9125 35.1288C24.9196 35.3998 24.8683 35.6694 24.7613 35.9222C24.6542 36.175 24.4937 36.4062 24.2888 36.6024C24.0839 36.7986 23.8386 36.9561 23.5669 37.0659C23.2953 37.1756 23.0026 37.2355 22.7056 37.242C22.4087 37.2486 22.1132 37.2017 21.836 37.1041C21.5589 37.0065 21.3055 36.86 21.0904 36.673C20.8754 36.4861 20.7027 36.2623 20.5824 36.0145V36.0104L20.5734 35.9897L20.5282 35.901C20.2445 35.3537 19.9374 34.8168 19.6076 34.2915C18.963 33.27 18.1148 32.1083 17.1987 31.2705C16.2781 30.4327 14.7831 29.5062 13.3965 28.7468C12.6671 28.3479 11.9249 27.9688 11.1709 27.6098L11.0374 27.5479L11.0058 27.5314L10.999 27.5294M9.9902 24.7581C9.85679 25.0004 9.77706 25.2644 9.75556 25.5349C9.73406 25.8054 9.77122 26.0771 9.86491 26.3345C9.9586 26.5919 10.107 26.8299 10.3016 27.0349C10.4962 27.2399 10.7332 27.408 10.999 27.5294L9.9902 24.7581Z" fill="black"/>
</mask>
<g mask="url(#mask0_77_297)">
<path d="M29.908 53.7441C46.1474 53.7441 59.312 41.7339 59.312 26.9186C59.312 12.1032 46.1474 0.0929871 29.908 0.0929871C13.6687 0.0929871 0.504028 12.1032 0.504028 26.9186C0.504028 41.7339 13.6687 53.7441 29.908 53.7441Z" fill="currentColor"/>
</g>
</g>
<defs>
<clipPath id="clip0_77_297">
<rect width="58.808" height="53.6512" fill="white" transform="translate(0.504028 0.0929871)"/>
</clipPath>
</defs>
</svg>
