<svg width="28" height="25" viewBox="0 0 28 25" fill="none" xmlns="http://www.w3.org/2000/svg">
<path d="M14 12.5C12.075 12.5 10.4271 11.888 9.05625 10.6641C7.68542 9.4401 7 7.96875 7 6.25C7 4.53125 7.68542 3.0599 9.05625 1.83594C10.4271 0.611979 12.075 0 14 0C15.925 0 17.5729 0.611979 18.9437 1.83594C20.3146 3.0599 21 4.53125 21 6.25C21 7.96875 20.3146 9.4401 18.9437 10.6641C17.5729 11.888 15.925 12.5 14 12.5ZM0 25V20.625C0 19.7396 0.2555 18.926 0.7665 18.1844C1.2775 17.4427 1.95533 16.876 2.8 16.4844C4.60833 15.6771 6.44583 15.0719 8.3125 14.6687C10.1792 14.2656 12.075 14.0635 14 14.0625C15.925 14.0615 17.8208 14.2635 19.6875 14.6687C21.5542 15.074 23.3917 15.6792 25.2 16.4844C26.0458 16.875 26.7242 17.4417 27.2352 18.1844C27.7462 18.9271 28.0012 19.7406 28 20.625V25H0ZM3.5 21.875H24.5V20.625C24.5 20.3385 24.4201 20.0781 24.2602 19.8438C24.1004 19.6094 23.8887 19.4271 23.625 19.2969C22.05 18.5938 20.4604 18.0667 18.8562 17.7156C17.2521 17.3646 15.6333 17.1885 14 17.1875C12.3667 17.1865 10.7479 17.3625 9.14375 17.7156C7.53958 18.0688 5.95 18.5958 4.375 19.2969C4.1125 19.4271 3.90075 19.6094 3.73975 19.8438C3.57875 20.0781 3.49883 20.3385 3.5 20.625V21.875ZM14 9.375C14.9625 9.375 15.7867 9.06927 16.4727 8.45781C17.1587 7.84635 17.5012 7.11042 17.5 6.25C17.4988 5.38958 17.1564 4.65417 16.4727 4.04375C15.7891 3.43333 14.9648 3.12708 14 3.125C13.0352 3.12292 12.2115 3.42917 11.529 4.04375C10.8465 4.65833 10.5035 5.39375 10.5 6.25C10.4965 7.10625 10.8395 7.84219 11.529 8.45781C12.2185 9.07344 13.0422 9.37917 14 9.375Z" fill="currentColor"/>
</svg>
