<svg width="25" height="29" viewBox="0 0 25 29" fill="none" xmlns="http://www.w3.org/2000/svg">
<path d="M6.9109 1.06191C4.02674 1.65022 1.45827 2.15243 1.18563 2.20983C0.0233634 2.42506 -0.407107 3.77387 0.453834 4.57742L0.884305 4.97919V6.83022C0.884305 8.33686 0.798211 9.11171 0.453834 10.8192C-0.234919 14.22 -0.191872 14.3348 1.77394 14.3348C3.68236 14.3348 3.72541 14.22 3.03666 10.8192C2.70663 9.16911 2.60619 8.30817 2.60619 6.98806C2.60619 5.72534 2.64924 5.29487 2.79273 5.29487C2.87882 5.29487 3.49583 5.39531 4.15588 5.52445L5.3325 5.76839V7.71986C5.3325 10.7475 5.86342 12.3402 7.34137 13.8899C8.79062 15.3966 10.3834 16.0566 12.5644 16.0566C14.6307 16.0423 16.0369 15.4683 17.5435 13.9617C19.1506 12.3976 19.6815 10.8336 19.6815 7.71986V5.76839L21.6617 5.38096C24.1297 4.8931 24.5028 4.77831 24.7754 4.39088C25.1916 3.78822 25.005 2.74074 24.4167 2.42506C24.1154 2.26723 12.6936 -0.0286198 12.3492 7.82013e-05C12.2344 0.0144272 9.79505 0.487946 6.9109 1.06191Z" fill="currentColor"/>
<path d="M5.70314 18.5674C4.38303 19.0983 3.57949 19.6436 2.53201 20.7054C1.44148 21.8246 0.781429 22.9151 0.32226 24.4361C-0.0508146 25.6415 -0.0938617 27.4494 0.250515 27.9373C0.781429 28.7122 0.394005 28.6835 12.5333 28.6835C23.4098 28.6835 23.7829 28.6691 24.2277 28.3965C24.9165 27.9804 25.0313 27.6503 24.9595 26.2585C24.773 23.116 22.8933 20.3323 20.0091 18.8974C18.8182 18.3091 18.115 18.18 17.5554 18.4813C17.4263 18.553 16.3501 19.6436 15.1735 20.9063C13.9825 22.1833 12.9064 23.2452 12.7629 23.2739C12.6194 23.3169 12.3898 23.3169 12.2319 23.2739C12.0885 23.2452 11.041 22.212 9.92176 20.9924C8.78818 19.7727 7.72636 18.6965 7.56852 18.5961C7.0376 18.2517 6.50669 18.2374 5.70314 18.5674Z" fill="currentColor"/>
</svg>
