<svg width="70" height="79" viewBox="0 0 70 79" fill="none" xmlns="http://www.w3.org/2000/svg">
<path d="M18.8785 2.90207C10.9999 4.50916 3.98356 5.88106 3.23881 6.03785C0.0638219 6.62581 -1.1121 10.3104 1.23974 12.5054L2.41566 13.6029V18.6594C2.41566 22.7751 2.18048 24.8918 1.23974 29.5563C-0.64173 38.846 -0.524138 39.1596 4.8459 39.1596C10.0591 39.1596 10.1767 38.846 8.29526 29.5563C7.39372 25.0486 7.11934 22.6967 7.11934 19.0906C7.11934 15.6412 7.23694 14.4653 7.62891 14.4653C7.86409 14.4653 9.54958 14.7397 11.3527 15.0924L14.5668 15.7588V21.0896C14.5668 29.3603 16.0171 33.7112 20.0545 37.9445C24.0134 42.0602 28.3643 43.8633 34.3223 43.8633C39.9667 43.8241 43.8081 42.2562 47.9238 38.1405C52.3139 33.868 53.7642 29.5955 53.7642 21.0896V15.7588L59.1734 14.7005C65.9154 13.3678 66.9345 13.0542 67.6792 11.9958C68.816 10.3496 68.3064 7.48815 66.6993 6.62581C65.8762 6.19464 34.6751 -0.0769348 33.7343 0.00146103C33.4208 0.040657 26.7572 1.33417 18.8785 2.90207Z" fill="currentColor"/>
<path d="M15.5835 50.721C11.9774 52.1713 9.78231 53.6608 6.9209 56.5614C3.9419 59.6188 2.13883 62.5978 0.884512 66.7527C-0.134619 70.0453 -0.252211 74.9841 0.688525 76.3168C2.13883 78.4335 1.0805 78.3551 34.2414 78.3551C63.953 78.3551 64.9722 78.3159 66.1873 77.5711C68.0687 76.4344 68.3823 75.5329 68.1863 71.7307C67.6768 63.1465 62.5419 55.5422 54.6633 51.6225C51.4099 50.0154 49.4892 49.6626 47.9605 50.4858C47.6077 50.6818 44.6679 53.6608 41.4538 57.1101C38.2004 60.5987 35.2606 63.4993 34.8686 63.5777C34.4766 63.6953 33.8495 63.6953 33.4183 63.5777C33.0263 63.4993 30.1649 60.6771 27.1075 57.3453C24.0109 54.0135 21.1103 51.0737 20.6792 50.7994C19.2289 49.8586 17.7786 49.8194 15.5835 50.721Z" fill="currentColor"/>
<path d="M39.0586 47.3887C39.0586 46.5602 39.7302 45.8887 40.5586 45.8887H68.4976V75.535C68.4976 76.3634 67.826 77.035 66.9976 77.035H39.0586V47.3887Z" fill="white" stroke="#1F4B73" stroke-width="3"/>
<path d="M53.8244 44.3887V61.4618M53.8244 78.535V61.4618M53.8244 61.4618H69.9976H55.7244H37.5586" stroke="#1F4B73" stroke-width="3"/>
</svg>
