<svg width="47" height="46" viewBox="0 0 47 46" fill="none" xmlns="http://www.w3.org/2000/svg">
<path d="M42.7205 22.8622C42.7205 33.4133 34.1672 41.9666 23.6161 41.9666C13.065 41.9666 4.51172 33.4133 4.51172 22.8622C4.51172 12.3111 13.065 3.75781 23.6161 3.75781C34.1672 3.75781 42.7205 12.3111 42.7205 22.8622Z" fill="transparent"  stroke="currentColor" stroke-width="3"/>
<path d="M22.9675 6.37844L22.949 6.23003L22.8095 6.17611C22.7476 6.15218 22.6901 6.12377 22.6365 6.09104C22.5757 6.05381 22.5161 6.01388 22.4577 5.97121L22.3434 5.88765L22.2129 5.94274L21.3804 6.29428L20.6428 5.0138L21.3646 4.46448L21.4813 4.37563L21.4607 4.23036C21.4564 4.20018 21.4545 4.17259 21.4545 4.14742V3.91117C21.4545 3.886 21.4564 3.85841 21.4607 3.82823L21.4813 3.68297L21.3646 3.59411L20.6428 3.04479L21.3804 1.76432L22.2129 2.11586L22.3434 2.17094L22.4577 2.08738C22.5146 2.04578 22.5743 2.00663 22.6369 1.96997C22.6976 1.93439 22.7573 1.90447 22.816 1.8799L22.9496 1.82393L22.9675 1.68015L23.0795 0.779297H24.5533L24.6653 1.68015L24.6838 1.82856L24.8233 1.88248C24.8852 1.90642 24.9428 1.93482 24.9963 1.96756C25.0571 2.00478 25.1167 2.04471 25.1751 2.08738L25.2894 2.17094L25.4199 2.11586L26.2524 1.76432L26.99 3.04479L26.2682 3.59411L26.1515 3.68297L26.1721 3.82823C26.1764 3.85841 26.1783 3.886 26.1783 3.91117V4.14742C26.1783 4.15965 26.1765 4.17597 26.1705 4.19718L26.1238 4.36121L26.2595 4.46448L26.9813 5.0138L26.244 6.29369L25.4206 5.94303L25.2898 5.88736L25.1751 5.97121C25.1182 6.01281 25.0585 6.05196 24.9959 6.08863C24.9352 6.12421 24.8756 6.15412 24.8169 6.1787L24.6832 6.23466L24.6653 6.37844L24.5533 7.2793H23.0795L22.9675 6.37844ZM23.8338 5.5043C24.2372 5.5043 24.5882 5.35809 24.873 5.07188C25.1577 4.78572 25.3027 4.43351 25.3027 4.0293C25.3027 3.62508 25.1577 3.27287 24.873 2.98671C24.5882 2.70051 24.2372 2.5543 23.8338 2.5543C23.4259 2.5543 23.0724 2.69969 22.7892 2.9878C22.5077 3.27419 22.3649 3.62606 22.3649 4.0293C22.3649 4.43253 22.5077 4.78441 22.7892 5.07079C23.0724 5.3589 23.4259 5.5043 23.8338 5.5043Z" fill="currentColor" stroke="currentColor" stroke-width="0.5"/>
<circle cx="4.42969" cy="23.0293" r="3.5" fill="currentColor"/>
<path d="M18.1822 9.01893C15.2109 9.62502 12.5648 10.1424 12.284 10.2015C11.0866 10.4233 10.6431 11.8128 11.53 12.6407L11.9735 13.0546V14.9616C11.9735 16.5137 11.8848 17.312 11.53 19.0711C10.8205 22.5746 10.8648 22.6929 12.8901 22.6929C14.8561 22.6929 14.9005 22.5746 14.1909 19.0711C13.8509 17.3711 13.7474 16.4842 13.7474 15.1242C13.7474 13.8233 13.7918 13.3798 13.9396 13.3798C14.0283 13.3798 14.664 13.4833 15.344 13.6163L16.5562 13.8676V15.8781C16.5562 18.9972 17.1031 20.6381 18.6257 22.2346C20.1188 23.7868 21.7596 24.4668 24.0066 24.4668C26.1353 24.452 27.584 23.8607 29.1362 22.3085C30.7918 20.6972 31.3388 19.0859 31.3388 15.8781V13.8676L33.3788 13.4685C35.9214 12.9659 36.3058 12.8476 36.5866 12.4485C37.0153 11.8276 36.8232 10.7485 36.2171 10.4233C35.9066 10.2607 24.1397 7.89544 23.7849 7.92501C23.6666 7.93979 21.1536 8.42762 18.1822 9.01893Z" fill="currentColor"/>
<path d="M16.9375 27.0547C15.5775 27.6016 14.7497 28.1634 13.6706 29.2573C12.5471 30.4103 11.8671 31.5338 11.394 33.1008C11.0097 34.3425 10.9653 36.2051 11.3201 36.7077C11.8671 37.506 11.4679 37.4764 23.9741 37.4764C35.1793 37.4764 35.5637 37.4616 36.0219 37.1808C36.7315 36.7521 36.8497 36.4121 36.7758 34.9782C36.5837 31.7408 34.6471 28.8729 31.6758 27.3947C30.4489 26.7886 29.7245 26.6555 29.148 26.966C29.0149 27.0399 27.9062 28.1634 26.6941 29.4642C25.4671 30.7799 24.3584 31.8738 24.2106 31.9034C24.0628 31.9477 23.8262 31.9477 23.6636 31.9034C23.5158 31.8738 22.4367 30.8094 21.2836 29.5529C20.1158 28.2964 19.0219 27.1877 18.8593 27.0842C18.3123 26.7294 17.7653 26.7147 16.9375 27.0547Z" fill="currentColor"/>
<path d="M23.0612 44.3218L23.0428 44.1734L22.9033 44.1195C22.8414 44.0955 22.7838 44.0671 22.7303 44.0344C22.6694 43.9972 22.6098 43.9572 22.5515 43.9146L22.4371 43.831L22.3067 43.8861L21.4742 44.2376L20.7366 42.9572L21.4583 42.4078L21.5751 42.319L21.5544 42.1737C21.5501 42.1435 21.5482 42.116 21.5482 42.0908V41.8545C21.5482 41.8294 21.5501 41.8018 21.5544 41.7716L21.5751 41.6263L21.4583 41.5375L20.7366 40.9881L21.4742 39.7077L22.3067 40.0592L22.4371 40.1143L22.5515 40.0307C22.6084 39.9891 22.6681 39.95 22.7306 39.9133C22.7913 39.8777 22.851 39.8478 22.9097 39.8233L23.0433 39.7673L23.0612 39.6235L23.1733 38.7227H24.647L24.7591 39.6235L24.7775 39.7719L24.917 39.8258C24.979 39.8498 25.0365 39.8782 25.09 39.9109C25.1509 39.9481 25.2105 39.9881 25.2689 40.0307L25.3832 40.1143L25.5136 40.0592L26.3461 39.7077L27.0838 40.9881L26.362 41.5375L26.2452 41.6263L26.2659 41.7716C26.2702 41.8018 26.2721 41.8294 26.2721 41.8545V42.0908C26.2721 42.103 26.2702 42.1193 26.2642 42.1405L26.2176 42.3046L26.3533 42.4078L27.0751 42.9572L26.3378 44.237L25.5143 43.8864L25.3836 43.8307L25.2689 43.9146C25.2119 43.9562 25.1522 43.9953 25.0897 44.032C25.029 44.0676 24.9693 44.0975 24.9106 44.1221L24.777 44.178L24.7591 44.3218L24.647 45.2227H23.1733L23.0612 44.3218ZM23.9276 43.4477C24.3309 43.4477 24.6819 43.3014 24.9667 43.0152C25.2515 42.7291 25.3965 42.3769 25.3965 41.9727C25.3965 41.5684 25.2515 41.2162 24.9667 40.9301C24.6819 40.6439 24.3309 40.4977 23.9276 40.4977C23.5197 40.4977 23.1662 40.643 22.883 40.9312C22.6015 41.2175 22.4587 41.5694 22.4587 41.9727C22.4587 42.3759 22.6015 42.7278 22.883 43.0142C23.1662 43.3023 23.5197 43.4477 23.9276 43.4477Z" fill="currentColor" stroke="currentColor" stroke-width="0.5"/>
<circle cx="42.5742" cy="22.5" r="3.5" fill="currentColor"/>
</svg>
