<svg width="14" height="14" viewBox="0 0 14 14" fill="none" xmlns="http://www.w3.org/2000/svg">
<path d="M6.5 10.577V1.927L4.17 4.257L3.462 3.538L7 0L10.538 3.538L9.831 4.258L7.5 1.927V10.577H6.5ZM1.615 14C1.155 14 0.771 13.846 0.463 13.538C0.155 13.23 0.000666667 12.8457 0 12.385V9.962H1V12.385C1 12.5383 1.064 12.6793 1.192 12.808C1.32 12.9367 1.461 13.0007 1.615 13H12.385C12.5383 13 12.6793 12.936 12.808 12.808C12.9367 12.68 13.0007 12.539 13 12.385V9.962H14V12.385C14 12.845 13.846 13.229 13.538 13.537C13.23 13.845 12.8457 13.9993 12.385 14H1.615Z" fill="#000000"/>
</svg>
